<svg id="Logo_Image" data-name="Logo Image" xmlns="http://www.w3.org/2000/svg" xmlns:xlink="http://www.w3.org/1999/xlink" viewBox="0 0 352.16 302.56"><defs><style>.cls-1,.cls-5,.cls-6{fill:none;}.cls-2{fill:#0587ab;}.cls-3{clip-path:url(#clip-path);}.cls-4{fill:#01404f;}.cls-5,.cls-6{stroke:#4faec8;stroke-miterlimit:10;}.cls-5{stroke-width:6px;opacity:0.82;}.cls-6{stroke-width:4px;opacity:0.38;}</style><clipPath id="clip-path" transform="translate(-750.98 -223.08)"><circle class="cls-1" cx="891.17" cy="417.78" r="68.83"/></clipPath></defs><title>Logo-ikats-notext</title><path class="cls-2" d="M751.19,478.13s-6.31-64.52,49.9-117.81,105.58-67.55,121-72,65.4-9.72,94.9-19.07,71-31,86.08-46.15c1.31,3.48-25.19,53.22-54.46,65.16,28.67-6.57,45.34-25.29,49.69-28,.23.81-7.29,16-27.46,25.32s-33.86,11.52-38.43,12.23-21.63,5.14-62.54,7c-8.23.51-72.24,4.25-118.33,34-21.24,14.58-55,38.35-76.47,78.31C761.53,442.26,756.12,454.51,751.19,478.13Z" transform="translate(-750.98 -223.08)"/><path class="cls-2" d="M800.89,520.19S867.47,535.63,947.33,487c57.59-35,92.07-99,103.29-142.6-2.65,13.66,8.33,91.19-96,150.9C866.4,543,800.89,520.19,800.89,520.19Z" transform="translate(-750.98 -223.08)"/><g class="cls-3"><circle class="cls-4" cx="140.02" cy="194.52" r="69"/><path d="M890.88,467.5c23-35.5,23.65-70,.29-103.5C871.52,395.64,862.88,429.5,890.88,467.5Z" transform="translate(-750.98 -223.08)"/><polyline class="cls-5" points="78.66 231.35 93.77 214.17 108.52 230.42 117.77 222.29 124.27 230.42 139.85 219.92 152.52 224.17 172.52 211.95 178.77 228.67 188.52 226.92 195.68 237.95"/><polyline class="cls-5" points="200.82 157.48 192.69 166.42 181.02 160.25 167.02 181.08 159.52 151.25 147.52 166.17 138.17 173.75 124.52 194.52 112.77 166.17 108.85 147.92 90.85 159.42 83.19 153.58"/><line class="cls-6" x1="71.02" y1="190.92" x2="209.02" y2="191.17"/><path class="cls-6" d="M834.17,372.89S874.85,371,890.83,371s55.79,2.05,55.79,2.05" transform="translate(-750.98 -223.08)"/><path class="cls-6" d="M949.17,459.38s-38.59,1.89-54.57,1.89-61.6-2-61.6-2" transform="translate(-750.98 -223.08)"/></g></svg>